<svg xmlns="http://www.w3.org/2000/svg" viewBox="0 0 276.99 51.49"><defs><style>.cls-1,.cls-2{fill:#7a7773;}.cls-1{fill-rule:evenodd;}</style></defs><g id="Layer_2" data-name="Layer 2"><g id="Layer_1-2" data-name="Layer 1"><path class="cls-1" d="M45.54,50.75a36.28,36.28,0,0,1,1.17-3.58c.83,0,1.38-.43,1.49-.93.27-1.21-2.1-1.42-1.77-2.79h0a3.74,3.74,0,0,1,.15-.37,2.75,2.75,0,0,0,1.8.65,2.2,2.2,0,1,0,0-4.34h-.27c.07-.15.12-.3.18-.42h0c1-2.83,3.77-5,4.37-8.39a7.83,7.83,0,0,0-1.39-6.06c-1.68-1.87-4.21-2.88-6.9-3.74-2-4.89-6.15-7-12.87-7-.9-1.21-1.46-2.76-3.64-2.7a3.7,3.7,0,0,1-.09-1.77c.4-.29.92-.45,1.12-.94s-.13-.61-.19-.93c2.15-.76,1.1-3.61-.74-3.92a1.89,1.89,0,0,0,.11-.25,2,2,0,0,0,.39-1.21,2.07,2.07,0,1,0-4.14,0,2,2,0,0,0,.4,1.21,1.89,1.89,0,0,0,.11.25C23,3.84,22,6.69,24.1,7.45c-.06.32-.27.48-.18.93s.72.65,1.11.94a3.57,3.57,0,0,1-.09,1.77c-2.17-.06-2.74,1.49-3.64,2.7-6.72,0-10.86,2.1-12.87,7-2.68.86-5.22,1.87-6.9,3.74a7.92,7.92,0,0,0-1.4,6.06c.6,3.32,3.38,5.52,4.36,8.31.06.16.14.33.21.51H4.41a2.2,2.2,0,1,0,0,4.34,2.79,2.79,0,0,0,1.82-.66c.09.22.15.36.15.38.34,1.37-2,1.58-1.77,2.79.11.5.66.9,1.49.93.44,1.15.89,2.5,1.18,3.58,4.88-2.43,11.65-3.92,19.13-3.92s14.24,1.49,19.13,3.92M42.61,30.11c.94-2.13,2.07-4.29,2.14-7.08,2.82,1.16,4.52,3.88,4,7.64-.33,2.43-2.08,5.26-2.87,7.22v0l-.11.37a3,3,0,0,0-.8-.11,2.39,2.39,0,0,0-2.55,2.17,2.33,2.33,0,0,0,2.21,2.15l-.63.93c-1.74-.51-3.42-1.06-5.23-1.5-.32-.57,0-1.11.1-1.77l0,0v0s0-.15,0-.41A2.89,2.89,0,0,0,40,40a2.38,2.38,0,0,0,2.55-2.17A2.38,2.38,0,0,0,40,35.65h-.19a1.06,1.06,0,0,1,.17-.23h0C40.9,33.74,41.77,32,42.61,30.11Zm-2.34-5.78a31.76,31.76,0,0,1-1.49,5.32c-.57,1.71-1.19,3.39-1.68,4.85a3.73,3.73,0,0,0-.48,0,2.38,2.38,0,0,0-2.55,2.17,2.38,2.38,0,0,0,2.55,2.17h.09a1.59,1.59,0,0,1-.09.33c-.2.84-.57,1.57-1.29,1.7a11.84,11.84,0,0,1-2.14-.37,19,19,0,0,1-3.55-.75A3.46,3.46,0,0,1,29.2,38a3,3,0,0,0,.6.06,2.38,2.38,0,0,0,2.55-2.17,2.26,2.26,0,0,0-1.85-2.09C32.16,30.45,35,26.36,35.71,22a7.1,7.1,0,0,0-1.5-6.25C37.7,17,41,19.28,40.27,24.33ZM14,42c-1.81.44-3.49,1-5.22,1.5-.43-.12-.54-.54-.7-.92a2.33,2.33,0,0,0,2.27-2.16A2.38,2.38,0,0,0,7.83,38.2a3.33,3.33,0,0,0-.78.1c-.06-.22-.11-.36-.11-.36C6.17,36,4.38,33.12,4.05,30.67c-.51-3.76,1.19-6.48,4-7.64.08,2.79,1.2,4.95,2.15,7.08.83,1.89,1.7,3.63,2.61,5.32a1.66,1.66,0,0,1,.17.24l-.33,0a2.38,2.38,0,0,0-2.55,2.17A2.38,2.38,0,0,0,12.66,40a2.75,2.75,0,0,0,1.23-.28l0,.47C14,40.84,14.35,41.38,14,42Zm9.14-2.24a19,19,0,0,1-3.55.75,11.7,11.7,0,0,1-2.14.37c-.81-.15-1.17-1-1.36-2a2.38,2.38,0,0,0,2.51-2.17,2.38,2.38,0,0,0-2.55-2.17,2.22,2.22,0,0,0-.37,0C15.22,33,14.6,31.35,14,29.65a31.76,31.76,0,0,1-1.49-5.32c-.69-5,2.57-7.32,6.06-8.58A7.1,7.1,0,0,0,17.11,22c.75,4.36,3.54,8.45,5.21,11.81a2.25,2.25,0,0,0-1.86,2.09A2.37,2.37,0,0,0,23,38.07a3,3,0,0,0,.61-.06A3.46,3.46,0,0,1,23.17,39.71ZM26,36.92l.37,0h.45l.38,0Zm1.2,0a6,6,0,0,0-.09,2.56h-1A6.29,6.29,0,0,0,26,36.92ZM22.14,25.63c-.24-.6-.53-1.25-.74-1.86-1.38-3.85-.28-8.18,2.78-9.47a4.69,4.69,0,0,0,2.23.49,4.68,4.68,0,0,0,2.22-.49c3.07,1.29,4.16,5.62,2.78,9.47-.21.61-.5,1.26-.74,1.86-1,2.55-1.89,5.21-2.76,7.32l-.1-.05,0,0h0a2.69,2.69,0,0,0-1.37-.36,2.78,2.78,0,0,0-1.5.43C24,30.83,23.14,28.17,22.14,25.63ZM26,36.92l.37,0h.45l.38,0m0,0a6,6,0,0,0-.09,2.56h-1A6.29,6.29,0,0,0,26,36.92"/><path class="cls-1" d="M75,32.81a10.42,10.42,0,0,1-3.58-.55c-1.26-.56-1.26-1.07-1.38-2.88,0-.55,0-5.13,0-8v-2.1c0-.19.08-.26.25-.26.6,0,2.63,0,3.16.07a7.13,7.13,0,0,1,3.37,1.07,8.55,8.55,0,0,1,3.94,7.38c0,4.17-3.53,5.24-5.72,5.24M70,7.61c0-.22.12-.33.49-.4a9.81,9.81,0,0,1,2-.19c4,0,5.48,3.29,5.48,6.35a5.39,5.39,0,0,1-1.46,3.72c-.86.89-1.42,1-3.7,1a15,15,0,0,1-2.47-.15.34.34,0,0,1-.29-.4Zm7.19,10.55c1.9-1.8,3.81-3.61,3.81-6.64C81,9.68,79.53,6,72.87,6c-1.86,0-3.45.11-4.42.11-.2,0-2.76-.11-4.59-.11-.44,0-.65.07-.65.29s.17.22.33.22a8.86,8.86,0,0,1,1.38.11c1.34.26,1.66.85,1.74,2.11s.08,2.21.08,8v6.49c0,3.54,0,6.46-.2,8-.16,1.07-.36,1.88-1.17,2a7.39,7.39,0,0,1-1.22.15c-.25,0-.33.11-.33.22s.21.29.65.29c.61,0,1.54-.07,2.36-.07s1.54,0,1.62,0,1.3,0,2.48.11,2.47.11,2.92.11c6.94,0,10.35-4.09,10.35-8C84.2,21.63,80.18,19,77.18,18.16Z"/><path class="cls-1" d="M112.71,33.37a5.4,5.4,0,0,1-1.42-.19c-.77-.22-1.74-.63-3-3.43-2.2-4.76-7.92-17.71-8.57-19-.36-.7-.48-1.14-.85-1.14s-.4.18-.85,1.21l-8.4,19.63c-.69,1.59-1.38,2.7-3,2.88a10,10,0,0,1-1,.08c-.16,0-.33.11-.33.25s.25.26.69.26c1.46,0,3.25-.11,3.61-.11s2.36.11,3.21.11c.33,0,.53-.07.53-.26s-.08-.25-.37-.25h-.32c-.61,0-1.22-.22-1.22-.85a6.13,6.13,0,0,1,.53-2.11l2-5,.73-1.78L97.94,15c.2-.48.4-.48.61,0l3.53,8.59.73,1.7,3.21,7.2a.58.58,0,0,1-.33.85c-.16.07-.24.07-.24.22s.57.18,1.25.22c2.48.07,5.12.07,5.65.07s.81-.07.81-.26-.24-.25-.45-.25"/><path class="cls-1" d="M218.83,22.22a5,5,0,0,1-2.68.56,13.22,13.22,0,0,1-3.94-.48.47.47,0,0,1-.24-.41V11.82a.4.4,0,0,1,.28-.37,16.26,16.26,0,0,1,2.56-.19c3.82,0,6.17,2.26,6.17,6.16,0,2.4-.93,4.06-2.15,4.8M257,33.37a5.4,5.4,0,0,1-1.42-.19c-.77-.22-1.74-.63-3-3.43-2.2-4.76-7.92-17.71-8.57-19-.36-.7-.49-1.14-.85-1.14s-.41.18-.85,1.21l-8.4,19.63c-.65,1.48-1.3,2.53-2.7,2.82a6.92,6.92,0,0,1-3.81-2.15c-2.07-2-4.54-4.8-7.46-8.12,3.32-2.58,4.38-4.83,4.38-7.16a5.38,5.38,0,0,0-2.48-4.28c-1.87-1.18-4.38-1.36-6.65-1.36-1.1,0-4.1.07-4.47.07-.2,0-2.6-.07-4.22-.07-.41,0-.57.07-.57.26a.32.32,0,0,0,.29.25,11.52,11.52,0,0,1,1.21.08c1.18.14,1.38.66,1.47,1.73s.07,1.88.07,6.75v5.54a59.15,59.15,0,0,1-.2,6.79c-.16.92-.24,1.51-.93,1.66a5.94,5.94,0,0,1-1.1.15.26.26,0,0,0-.28.25c0,.19.2.26.57.26,1.09,0,3.49-.11,3.53-.11s2.43.11,4.38.11c.41,0,.57-.11.57-.26s0-.25-.28-.25a15.47,15.47,0,0,1-1.59-.15c-1.09-.15-1.3-.74-1.42-1.66-.16-1.29-.16-3.73-.16-6.75v-.74c0-.19.08-.26.24-.26l4.55.07a.59.59,0,0,1,.49.19c.77.85,2.35,2.88,3.85,4.57,2,2.36,3.33,3.88,4.87,4.61a7.76,7.76,0,0,0,3.82.63H232a2.2,2.2,0,0,0,.7-.07l1,0c.41,0,2.36.11,3.21.11.33,0,.53-.07.53-.26s-.08-.25-.37-.25h-.32c-.61,0-1.22-.22-1.22-.85a5.91,5.91,0,0,1,.53-2.11l2-5,.73-1.78L242.18,15c.2-.48.4-.48.61,0l3.53,8.59.73,1.7,3.2,7.2a.58.58,0,0,1-.32.85c-.16.07-.24.07-.24.22s.56.18,1.25.22c2.48.07,5.12.07,5.65.07s.81-.07.81-.26S257.15,33.37,257,33.37Z"/><path class="cls-1" d="M132.52,29.49c-.2,0-.33.19-.37.41a3.66,3.66,0,0,1-.85,1.77c-.85.92-2.43,1-4.3,1-2.8,0-4.18-.22-4.75-.74s-.73-2.44-.73-7V19.23c0-4.87,0-5.75,0-6.75s.28-1.59,1.34-1.77c.41,0,.93-.07,1.18-.07s.28-.11.28-.22-.2-.26-.57-.26c-1.09,0-3.77.07-3.93.07s-2.44-.07-4.06-.07c-.41,0-.57.07-.57.26a.32.32,0,0,0,.28.25,11.54,11.54,0,0,1,1.22.08c1.18.14,1.38.66,1.46,1.73s.08,1.88.08,6.75v5.54a59.15,59.15,0,0,1-.2,6.79c-.16.92-.24,1.51-.93,1.66a5.94,5.94,0,0,1-1.1.15.26.26,0,0,0-.28.25c0,.19.2.26.56.26.57,0,1.34,0,2.08-.07s1.29,0,1.46,0c1,0,2.27,0,3.89.08S127.4,34,130,34c1.91,0,2-.11,2.28-.85a18.55,18.55,0,0,0,.52-3.14c0-.33-.08-.48-.24-.48"/><path class="cls-1" d="M153.54,32.15l8.61-16h.08L163.93,32c.09.59,0,1.07-.16,1.1a.28.28,0,0,0-.24.26c0,.15.16.26,1,.34,1.3.11,5.28.18,6.09.18.41,0,.73-.11.73-.29s-.12-.23-.28-.23a8.42,8.42,0,0,1-2.32-.29c-1.46-.44-1.7-2.14-1.82-3.25L164.5,10.56c-.08-.59-.28-.85-.53-.85s-.4.23-.56.52L153,29.68l-10.8-19.49a.82.82,0,0,0-.73-.48c-.2,0-.37.23-.41.56l-2.6,20.47c-.16,1.19-.2,2.33-1.38,2.51a6.61,6.61,0,0,1-1,.11c-.2,0-.37.12-.37.23s.25.29.61.29c1,0,2.68-.11,3-.11s2,.11,3.32.11c.41,0,.65-.07.65-.29s-.16-.23-.28-.23a6.14,6.14,0,0,1-1.38-.18c-.53-.11-.85-.4-.85-.89s0-1.1,0-1.58l1.38-14.17h.16c.61,1.29,3.49,6.57,4.55,8.56.89,1.7,3.24,5.72,4.18,7.27.69,1.14.89,1.44,1.22,1.44s.52-.3,1.25-1.66"/><path class="cls-1" d="M188.14,33c-6.46,0-11.29-4.58-11.29-11.89,0-6.82,4.31-10.22,10.27-10.22,5.64,0,10.68,3.95,10.68,11.48,0,9.08-6.46,10.63-9.66,10.63m-.82-23.29c-9.86,0-14.16,7.2-14.16,12.25,0,5.65,4.18,12.33,14,12.33,8.61,0,14.33-5.8,14.33-12.81C201.45,14.18,195.36,9.71,187.32,9.71Z"/><path class="cls-1" d="M276.75,29.49c-.2,0-.33.19-.37.41a3.66,3.66,0,0,1-.85,1.77c-.85.92-2.43,1-4.3,1-2.8,0-4.18-.22-4.75-.74s-.73-2.44-.73-7V19.23c0-4.87,0-5.75,0-6.75s.28-1.59,1.34-1.77c.4,0,.93-.07,1.18-.07s.28-.11.28-.22-.2-.26-.57-.26c-1.1,0-3.77.07-3.94.07s-2.43-.07-4.05-.07c-.41,0-.57.07-.57.26a.32.32,0,0,0,.28.25,11.54,11.54,0,0,1,1.22.08c1.18.14,1.38.66,1.46,1.73s.08,1.88.08,6.75v5.54a59.15,59.15,0,0,1-.2,6.79c-.16.92-.24,1.51-.93,1.66a5.94,5.94,0,0,1-1.1.15.26.26,0,0,0-.28.25c0,.19.2.26.56.26.57,0,1.34,0,2.07-.07s1.3,0,1.46,0c1.06,0,2.28,0,3.9.08s3.65.11,6.21.11c1.91,0,2-.11,2.27-.85A17.79,17.79,0,0,0,277,30c0-.33-.08-.48-.24-.48"/><path class="cls-2" d="M65.5,41.65a.18.18,0,0,1,.11-.17,4.11,4.11,0,0,1,.91-.08c1.47,0,2.37,1,2.37,2.74a2.48,2.48,0,0,1-.84,2.1,1.73,1.73,0,0,1-1,.26,3.68,3.68,0,0,1-1.44-.22.16.16,0,0,1-.09-.16Zm-1.1,5.69c0,1.31,0,2.39-.06,3-.06.4-.13.7-.4.76a2.87,2.87,0,0,1-.41,0c-.08,0-.11,0-.11.08s.07.11.22.11c.41,0,1.27,0,1.28,0s.93,0,1.68,0c.16,0,.22,0,.22-.11s0-.08-.11-.08l-.61,0c-.41-.06-.49-.36-.53-.76-.07-.57-.07-1.65-.07-3V47c0-.07,0-.11.09-.11l1.68,0a.19.19,0,0,1,.18.08c.28.35.92,1.27,1.49,2a7,7,0,0,0,1.85,2,2.78,2.78,0,0,0,1.46.26h1c.25,0,.33,0,.33-.11s0-.08-.12-.08a3.45,3.45,0,0,1-.54,0,2.84,2.84,0,0,1-1.66-1c-.8-.84-1.73-2.06-2.85-3.5A4.21,4.21,0,0,0,70,43.43a2.38,2.38,0,0,0-1-1.86,4.19,4.19,0,0,0-2.5-.6c-.42,0-1.46,0-1.61,0s-.93,0-1.55,0c-.15,0-.22,0-.22.1a.1.1,0,0,0,.11.09,2.35,2.35,0,0,1,.47,0c.45.09.56.31.59.78s0,.82,0,3Z"/><path class="cls-2" d="M75.86,44.93c0-2.13,0-2.52,0-3s.14-.71.51-.78a1.69,1.69,0,0,1,.34,0,.1.1,0,0,0,.11-.09c0-.08-.07-.1-.22-.1-.41,0-1.27,0-1.34,0s-.93,0-1.38,0c-.15,0-.22,0-.22.1s0,.09.11.09a1.81,1.81,0,0,1,.42.05c.3.07.44.3.47.77s0,.82,0,3v2.41c0,1.31,0,2.39-.07,3,0,.4-.12.7-.39.76a2.87,2.87,0,0,1-.41,0c-.08,0-.11,0-.11.08s.07.11.22.11c.41,0,1.27,0,1.34,0s.93,0,1.68,0c.15,0,.22,0,.22-.11s0-.08-.11-.08l-.62,0c-.41-.06-.49-.36-.53-.76-.07-.57-.07-1.65-.07-3Z"/><path class="cls-2" d="M81.07,42.63a5.46,5.46,0,0,1-.37-1.13.28.28,0,0,1,.18-.28,1.73,1.73,0,0,1,.52-.06c.09,0,.14,0,.14-.1s-.13-.09-.37-.09c-.52,0-1.14,0-1.27,0s-1,0-1.6,0c-.22,0-.36,0-.36.09s0,.1.11.1a2.35,2.35,0,0,1,.52.05c.48.14.68.29,1,1l3.35,8.39c.26.65.33.84.5.84s.19-.22.57-1,.93-2.14,1.76-4.14l1.54-3.7c.36-.93.57-1.17.75-1.29a1.26,1.26,0,0,1,.65-.16c.11,0,.17,0,.17-.1s-.08-.09-.23-.09c-.4,0-1,0-1.07,0s-.79,0-1.34,0c-.22,0-.3,0-.3.1s.07.09.15.09a1.91,1.91,0,0,1,.52.05.36.36,0,0,1,.18.32,2,2,0,0,1-.13.52c-.3,1-2.13,5.75-2.92,7.58Z"/><path class="cls-2" d="M90.87,47.34c0,1.31,0,2.39-.06,3-.06.4-.13.7-.4.76a2.87,2.87,0,0,1-.41,0c-.08,0-.11,0-.11.08s.07.11.22.11.52,0,.79,0h.55l1.07,0c.53,0,1.28,0,2.31,0,.53,0,.64,0,.73-.35a13.14,13.14,0,0,0,.18-1.33c0-.09,0-.2-.08-.2s-.1,0-.12.2c-.1.56-.26.84-.62,1a3.92,3.92,0,0,1-1.31.15c-1.34,0-1.55-.18-1.59-1.12,0-.29,0-1.88,0-2.34V46.13a.09.09,0,0,1,.1-.09c.23,0,1.59,0,1.95.07.54,0,.66.28.72.47a1.57,1.57,0,0,1,0,.46c0,.06,0,.12.1.12S95,47,95,46.9s0-.6.06-.88c0-.45.11-.68.11-.76s0-.11-.07-.11-.11.07-.21.18-.31.16-.64.19-2,0-2.18,0-.08,0-.08-.14V41.63c0-.09,0-.13.08-.13s1.65,0,1.88,0c.74.08.87.25,1,.46a1.46,1.46,0,0,1,.08.5c0,.11,0,.17.11.17s.08-.08.1-.15.05-.76.06-.9c0-.38.11-.55.11-.64s0-.12,0-.12-.12,0-.19.06a3,3,0,0,1-.59.07c-.31,0-3,0-3.13,0l-.56,0h-1c-.15,0-.22,0-.22.1a.1.1,0,0,0,.11.09,2.35,2.35,0,0,1,.47,0c.45.09.56.31.59.78s0,.82,0,3Z"/><path class="cls-2" d="M100.31,41.65a.18.18,0,0,1,.11-.17,4.19,4.19,0,0,1,.91-.08c1.47,0,2.37,1,2.37,2.74a2.51,2.51,0,0,1-.83,2.1,1.78,1.78,0,0,1-1,.26,3.68,3.68,0,0,1-1.44-.22.18.18,0,0,1-.09-.16Zm-1.09,5.69c0,1.31,0,2.39-.07,3-.06.4-.13.7-.4.76a2.87,2.87,0,0,1-.41,0c-.08,0-.11,0-.11.08s.07.11.22.11c.41,0,1.27,0,1.28,0s.93,0,1.69,0c.15,0,.22,0,.22-.11s0-.08-.11-.08-.43,0-.62,0c-.41-.06-.49-.36-.53-.76-.07-.57-.07-1.65-.07-3V47c0-.07,0-.11.09-.11l1.69,0a.19.19,0,0,1,.17.08c.28.35.92,1.27,1.49,2a7,7,0,0,0,1.85,2,2.81,2.81,0,0,0,1.46.26h1c.25,0,.33,0,.33-.11s0-.08-.12-.08a3.34,3.34,0,0,1-.53,0,2.86,2.86,0,0,1-1.67-1c-.79-.84-1.72-2.06-2.85-3.5a4.21,4.21,0,0,0,1.66-3.15,2.38,2.38,0,0,0-.94-1.86,4.24,4.24,0,0,0-2.51-.6c-.42,0-1.46,0-1.61,0s-.93,0-1.55,0c-.15,0-.21,0-.21.1s0,.09.11.09a2.32,2.32,0,0,1,.46,0c.45.09.56.31.59.78s0,.82,0,3Z"/><path class="cls-2" d="M110.35,51.49a3.6,3.6,0,0,0,2.06-.57,2.84,2.84,0,0,0,1.16-2.27c0-1.09-.38-1.94-2-3.21l-.39-.3c-1.31-1-1.67-1.52-1.67-2.3a1.56,1.56,0,0,1,1.69-1.59c1.25,0,1.62.58,1.71.73a2.34,2.34,0,0,1,.17.68c0,.11,0,.18.11.18s.1-.1.1-.32c0-.93,0-1.38,0-1.45s0-.09-.13-.09a2.66,2.66,0,0,1-.48-.07,5.38,5.38,0,0,0-1.27-.14c-1.74,0-2.83,1-2.83,2.46,0,.93.32,1.78,1.77,3l.62.51c1.17,1,1.57,1.52,1.57,2.46A1.83,1.83,0,0,1,110.65,51a1.87,1.87,0,0,1-2-1.4,2.42,2.42,0,0,1,0-.5c0-.11,0-.15-.09-.15s-.1.06-.11.22-.07.76-.07,1.44c0,.37,0,.43.2.52a4.07,4.07,0,0,0,1.84.37"/><path class="cls-2" d="M118.33,44.93c0-2.13,0-2.52,0-3s.13-.71.5-.78a1.85,1.85,0,0,1,.35,0,.09.09,0,0,0,.1-.09c0-.08-.06-.1-.21-.1-.41,0-1.28,0-1.34,0s-.93,0-1.39,0c-.15,0-.21,0-.21.1s0,.09.11.09a1.81,1.81,0,0,1,.42.05c.3.07.44.3.46.77s0,.82,0,3v2.41c0,1.31,0,2.39-.07,3,0,.4-.12.7-.39.76a3.05,3.05,0,0,1-.41,0c-.09,0-.11,0-.11.08s.07.11.22.11c.41,0,1.27,0,1.34,0s.93,0,1.68,0c.15,0,.22,0,.22-.11s0-.08-.11-.08-.43,0-.62,0c-.41-.06-.49-.36-.53-.76-.07-.57-.07-1.65-.07-3Z"/><path class="cls-2" d="M124.35,44.71c0-1.05,0-2.45,0-2.91,0-.15,0-.22.16-.27a3.41,3.41,0,0,1,.89-.1A5.62,5.62,0,0,1,129.88,43a4.9,4.9,0,0,1,1.32,3.45,4.8,4.8,0,0,1-1.1,3.27A4.55,4.55,0,0,1,126.85,51c-1.61,0-2.15-.29-2.33-.55a3.1,3.1,0,0,1-.15-1c0-.26,0-1.51,0-3Zm-1.15,2.63c0,1.31,0,2.39-.07,3-.06.4-.12.7-.4.76a2.7,2.7,0,0,1-.41,0c-.08,0-.11,0-.11.08s.07.11.22.11.52,0,.79,0h.55l1.14.08c.58,0,1.31.08,1.9.08A5.42,5.42,0,0,0,131,49.85,5.55,5.55,0,0,0,132.43,46a4.91,4.91,0,0,0-1.33-3.48C129.47,40.84,127,41,125.62,41c-.82,0-1.68,0-1.85,0s-.93,0-1.54,0c-.15,0-.22,0-.22.1s0,.09.11.09a2.32,2.32,0,0,1,.46,0c.45.09.56.31.59.78s0,.82,0,3Z"/><path class="cls-2" d="M135.6,47.34c0,1.31,0,2.39-.07,3-.05.4-.12.7-.4.76a2.7,2.7,0,0,1-.41,0c-.08,0-.11,0-.11.08s.07.11.22.11.52,0,.8,0h.54c.21,0,.54,0,1.07,0s1.29,0,2.31,0c.53,0,.64,0,.74-.35a13.14,13.14,0,0,0,.18-1.33c0-.09,0-.2-.09-.2s-.09,0-.12.2c-.09.56-.26.84-.61,1a4,4,0,0,1-1.32.15c-1.34,0-1.54-.18-1.58-1.12,0-.29,0-1.88,0-2.34V46.13a.08.08,0,0,1,.09-.09c.24,0,1.59,0,2,.07.53,0,.66.28.71.47a1.57,1.57,0,0,1,.05.46c0,.06,0,.12.1.12s.1-.15.1-.26,0-.6.05-.88c0-.45.11-.68.11-.76s0-.11-.07-.11-.11.07-.2.18-.32.16-.65.19-2,0-2.17,0-.08,0-.08-.14V41.63c0-.09,0-.13.08-.13s1.64,0,1.87,0c.74.08.88.25,1,.46a1.51,1.51,0,0,1,.09.5c0,.11,0,.17.11.17s.08-.08.09-.15.06-.76.07-.9c0-.38.11-.55.11-.64s0-.12-.06-.12-.12,0-.19.06a3,3,0,0,1-.58.07c-.32,0-3,0-3.14,0l-.56,0h-1c-.15,0-.22,0-.22.1s.05.09.11.09a2.32,2.32,0,0,1,.46,0c.46.09.56.31.59.78s0,.82,0,3Z"/></g></g></svg>